<?xml version="1.0" encoding="UTF-8"?><svg id="Layer_1" xmlns="http://www.w3.org/2000/svg" viewBox="0 0 411.13 75.56"><path d="m324.42,40.3c.87-2.93,1.58-5.79,2.08-8.69.64-3.77,1.29-7.54,1.92-11.31.09-.51.35-.69.84-.73,2.66-.19,5.33-.12,7.99-.04.59.02.83.18.7.92-2,11.05-3.94,22.12-5.9,33.18-.08.45-.17.9-.25,1.35-.41,2.2-.41,2.25-2.62,2.28-2.41.03-4.83-.01-7.24-.05-.78-.01-1.26-.01-1.67-1.18-.89-2.58-1.68-5.2-2.6-7.77-.88-2.47-1.6-4.99-2.59-7.42-.62-1.53-1.38-2.99-1.79-4.66-.21,1.59-.49,3.14-.77,4.69-.9,5.08-1.79,10.16-2.64,15.25-.14.83-.52,1.12-1.32,1.11-2.29-.04-4.58-.06-6.87-.03-1.12.02-1.64.02-1.26-1.51.74-2.98,1.06-6.06,1.6-9.08,1.47-8.23,2.95-16.45,4.46-24.67.13-.72-.32-1.64.36-2.13.72-.52,1.69-.32,2.56-.32,2.29-.02,4.58.05,6.87,0,.89-.02,1.3.23,1.59,1.12,2.12,6.43,4.7,12.72,6.29,19.32.02.07.09.13.27.37Z"/><path d="m285.3,40.66c.79-2.66,1.26-5.35,1.72-8.03.68-3.97,1.4-7.94,2.07-11.92.13-.8.49-1.12,1.31-1.17,2.54-.13,5.08-.02,7.62-.02.82,0,.67.44.6.99-.73,5.19-1.81,10.33-2.72,15.49-1.11,6.31-2.24,12.62-3.35,18.93-.39,2.23-.36,2.26-2.7,2.33-2.46.07-4.91.12-7.37-.05-.8-.06-1.21-.21-1.53-1.17-1.87-5.55-3.7-11.12-5.43-16.71-.31-1.02-.84-1.98-1.36-3.05-.21,1.01-.46,2.01-.64,3.03-.99,5.7-1.97,11.4-2.93,17.1-.08.49-.22.75-.75.78-2.79.15-5.58.09-8.37-.02-.3-.01-.83-.01-.58-.51.92-1.81.71-3.83,1.07-5.73,1.44-7.56,2.72-15.14,4.07-22.71.45-2.54.95-5.07,1.35-7.61.11-.72.38-1,1.09-1.04,3-.15,5.99-.12,8.99-.02.51.02.82.16,1,.71,1.7,5.08,3.43,10.16,5.17,15.23.59,1.71,1.3,3.37,1.67,5.18Z"/><path d="m387.43,19.48c2.29,0,4.58-.01,6.87,0,6.62.05,10.49,4.17,9.92,10.79-.39,4.51-1.94,8.66-5.81,11.28-1.74,1.18-1.64,2.12-1.15,3.72,1.1,3.62,2.02,7.29,3.08,10.92.25.87-.04,1.03-.78,1.04-2.58.06-5.16.12-7.75-.03-.64-.04-.94-.24-1.09-.91-.79-3.61-2.07-7.11-2.78-10.74,0-.04-.01-.09-.03-.12-.93-1.43-2.35-.49-3.52-.72-.71-.14-1.19.17-1.29.97-.44,3.63-1.49,7.17-1.77,10.82-.05.59-.34.65-.8.68-2.79.2-5.58.07-8.37,0-.35,0-.83.05-.63-.58.77-2.43.97-4.97,1.44-7.46.86-4.49,1.67-8.99,2.46-13.49.56-3.15,1.03-6.32,1.58-9.48.34-1.96.77-3.91,1.09-5.87.12-.73.58-.72,1.08-.72,2.75-.01,5.5,0,8.25,0,0-.03,0-.07,0-.1Zm.55,17.01c4.11.1,6.27-1.65,6.58-5.34.13-1.52-.56-2.69-1.98-3.23-1.75-.66-3.58-.67-5.42-.58-.59.03-.86.29-.95.91-.26,1.73-.71,3.43-.88,5.16-.09.93-1.16,1.98-.27,2.71.71.58,1.92.33,2.92.37Z"/><path d="m238.37,58.07c-2.43-.01-4.46-.33-6.45-1.02-4.29-1.49-6.59-4.54-6.64-9.08-.03-2.63.26-5.23.72-7.82,1.02-5.69,2.02-11.38,2.99-17.08.16-.94.57-1.83.53-2.81-.02-.56.37-.69.83-.69,2.66-.01,5.33-.03,7.99-.03.64,0,.81.26.69.95-1.41,7.78-2.76,15.56-4.15,23.34-.56,3.17.46,4.67,3.59,5.19,3.91.65,6.66-1.2,7.52-5.29.78-3.7,1.35-7.45,2.01-11.17.68-3.85,1.39-7.69,2.01-11.55.17-1.09.64-1.47,1.71-1.46,2.41.03,4.83,0,7.24-.03.89-.01.76.45.65,1.05-1.01,5.69-1.99,11.39-2.98,17.09-.53,3.07-1.01,6.16-2,9.13-1.84,5.5-5.48,9.1-11.19,10.52-1.79.44-3.57.82-5.08.77Z"/><path d="m87.42,19.5c3.83,0,7.66,0,11.49-.01.57,0,.72.14.63.72-.33,2.18-1.05,4.28-1.13,6.5-.02.63-.55.49-.95.52-3.99.33-8,.08-11.99.13-.21,0-.42-.02-.62-.01-1.8.02-1.79.03-2.09,1.86-.22,1.39-.22,2.82-.76,4.16-.34.84.34.78.81.79,1.92.02,3.83,0,5.75,0,1.75,0,3.5.04,5.25.04.68,0,.9.21.84.97-.16,2.17-.9,4.23-1.06,6.39-.05.68-.53.62-.99.65-3.58.23-7.16.16-10.74.05-1-.03-1.41.27-1.54,1.27-.21,1.52-.52,3.04-.9,4.52-.21.82.02,1.01.78,1.01,2.83,0,5.67.03,8.5.05,1.58.02,3.17.08,4.75.08.76,0,1.05.14.75,1-.64,1.82-.63,3.77-.91,5.66-.17,1.1-.62,1.35-1.59,1.35-3.87,0-7.75.09-11.62.1-3.54,0-7.08-.07-10.62-.09-.77,0-1.09-.09-.92-1.05,2.1-11.63,4.17-23.26,6.15-34.91.23-1.36.7-1.77,1.99-1.75,3.58.06,7.16.02,10.75.02,0-.01,0-.02,0-.04Z"/><path d="m351.3,57.2c-3.71,0-7.42-.01-11.12,0-.92,0-1.12-.08-.87-1.18.72-3.24,1.15-6.55,1.73-9.82,1.34-7.66,2.71-15.32,4.06-22.98.17-.94.57-1.83.45-2.82-.06-.49.25-.78.75-.81.66-.05,1.33-.11,2-.11,7,0,14,.02,21,0,.92,0,1.06.19.89,1.14-.33,1.88-.86,3.74-.88,5.66,0,.76-.4.87-1.01.93-3.16.34-6.33.09-9.49.15-1.37.03-2.75.04-4.12.01-.62-.01-.86.2-.96.83-.28,1.76-.39,3.56-.98,5.27-.29.84.41.64.77.64,2.62.03,5.25.02,7.87.03.62,0,1.25.02,1.87.03,2.37.05,2.33.05,1.97,2.34-.26,1.68-.8,3.32-.8,5.04,0,.69-.52.61-.98.64-3.33.29-6.66.12-9.99.09-2.1-.02-2.2,0-2.58,2.09-.21,1.15-.23,2.35-.6,3.44-.42,1.26.15,1.31,1.1,1.3,2-.03,4,0,6,0,2.25.02,4.5.06,6.75.07.83,0,1.03.22.81,1.12-.45,1.9-.75,3.84-1,5.78-.11.87-.45,1.12-1.26,1.11-3.79-.02-7.58-.01-11.37-.01,0,0,0-.01,0-.02Z"/><path d="m116.74,19.49c2.33,0,4.67-.03,7,0,6.02.1,10.1,3.68,9.79,10.08-.32,6.44-3.13,11.41-9.31,14.02-1.98.84-4.12.98-6.24,1.09-1.54.08-3.08.03-4.62.01-.57,0-.86.1-.97.79-.48,3.08-1.06,6.15-1.6,9.22-.02.12-.06.24-.1.36-.23.63.19,1.48-.34,1.9-.62.5-1.52.29-2.3.29-2.12.02-4.25-.05-6.37-.05-.87,0-.93-.22-.74-1.1.66-3.05,1.12-6.13,1.67-9.2,1.58-8.76,3.19-17.52,4.72-26.29.16-.89.52-1.08,1.3-1.08,2.71.02,5.41,0,8.12,0,0-.02,0-.04,0-.05Zm.19,16.95c.62,0,1.25.05,1.87,0,3.31-.29,5.45-3.08,4.94-6.37-.14-.9-.54-1.5-1.39-1.9-1.84-.87-3.79-.82-5.75-.87-.82-.02-1.06.34-1.17,1.08-.27,1.77-.61,3.53-.92,5.29q-.5,2.77,2.42,2.79Z"/><path d="m29.9,54.43c-1.29.03-2.59-.09-3.87,0-4.35.34-8.68.97-13.05.96-1.09,0-2.19.13-3.28.2,0,.08,0,.16,0,.24.3.05.6.12.91.14,2.16.17,4.33.2,6.47.51,3.59.52,7.2.71,10.82.8.58.01,1.15-.03,1.73-.08l.51-2.77c-.07,0-.13-.02-.22-.02Z"/><path d="m56.13,42.66c4.84-2.9,7.1-7.38,7.41-12.84.35-6.26-3.54-10.27-9.82-10.33-4.16-.04-8.33-.02-12.49,0-1.04,0-2.08.04-3.12.09-.07,0-.15,0-.23,0l-7.02,37.59s.1,0,.15,0c2.91.17,5.82.2,8.74.02.54-.03.79-.24.88-.82.58-3.61,1.2-7.21,1.81-10.82.06-.37.08-.81.58-.82,1.12-.02,2.25,0,3.37.03.51.02.64.42.75.85.76,2.85,1.5,5.71,2.34,8.54.29.97-.05,2.29.87,2.86.89.55,2.11.28,3.19.29,1.79,0,3.58-.04,5.37-.11.72-.03,1.16-.2.7-1.15-.48-1-.66-2.13-.99-3.2-.98-3.17-1.54-6.46-2.76-9.56-.16-.41,0-.44.28-.61Zm-9.14-6.15c-.91-.09-2.08.13-2.66-.36-.68-.57.12-1.67.22-2.54.2-1.73.57-3.45.84-5.17.12-.78.45-1.14,1.3-1.14,1.97,0,3.9.08,5.75.89.79.34,1.13.84,1.23,1.69.52,4.41-1.86,6.78-6.67,6.64Z"/><path d="m36.03,19.46c-1.7-.02-3.41-.14-5.11-.07-4.86.18-9.64,1.3-14.53,1.17-.24,0-.5.02-.68.27.68.26,1.38.3,2.08.34,2.24.12,4.51.07,6.72.41,3.3.51,6.62.68,9.94.76.84.02,1.29.01,1.58-.15l.49-2.66c-.13-.04-.3-.06-.48-.06Z"/><path d="m35.11,25.21c-4.97.23-9.98.03-14.89,1.04-1.75.36-3.54.16-5.28.52,1.87.56,3.79.41,5.68.46,4.36.11,8.65,1.11,13.03,1.02.41,0,.86.09,1.26.07l.57-3.09c-.11-.02-.22-.03-.36-.02Z"/><path d="m33.87,30.98c-2.28.17-4.56.39-6.85.4-4.08.02-8.13.37-12.37,1.4,6.06.45,11.86.89,17.66,1.33.75.06,1.21.09,1.53.02l.58-3.15c-.15-.02-.34-.01-.55,0Z"/><path d="m32.89,36.75c-1.28.13-2.57.27-3.85.35-5.14.31-10.28.6-15.25.89.92.42,2.11.77,3.33.9,5.13.55,10.32.31,15.44,1.09.06,0,.13.02.2.03l.59-3.25c-.14-.03-.3-.03-.46,0Z"/><path d="m30.24,48.52c-5.11.19-10.17,1.19-15.32.87-1.38-.09-2.78.14-4.17.22,0,.08,0,.16,0,.23,2.22.28,4.44.55,6.65.83,4.1.52,8.23.46,12.34.73.34.02.64.05.91.04l.54-2.93c-.2-.03-.49-.02-.96,0Z"/><path d="m31.43,42.71c-5.1.47-10.2.85-15.33.86-1.19,0-2.4-.16-3.6.22,2.32.44,4.61,1.1,7,1.21,3.78.17,7.57.36,11.35.63.36.03.65.02.89-.02l.53-2.87c-.19-.06-.46-.06-.83-.02Z"/><path d="m184.38,54.43c-1.29.03-2.59-.09-3.87,0-4.35.34-8.68.97-13.05.96-1.09,0-2.19.13-3.28.2,0,.08,0,.16,0,.24.3.05.6.12.91.14,2.16.17,4.33.2,6.47.51,3.59.52,7.2.71,10.82.8.58.01,1.15-.03,1.73-.08l.51-2.77c-.07,0-.13-.02-.22-.02Z"/><path d="m210.61,42.66c4.84-2.9,7.1-7.38,7.41-12.84.35-6.26-3.54-10.27-9.82-10.33-4.16-.04-8.33-.02-12.49,0-1.04,0-2.08.04-3.12.09-.07,0-.15,0-.23,0l-7.02,37.59s.1,0,.15,0c2.91.17,5.82.2,8.74.02.54-.03.79-.24.88-.82.58-3.61,1.2-7.21,1.81-10.82.06-.37.08-.81.58-.82,1.12-.02,2.25,0,3.37.03.51.02.64.42.75.85.76,2.85,1.5,5.71,2.34,8.54.29.97-.05,2.29.87,2.86.89.55,2.11.28,3.19.29,1.79,0,3.58-.04,5.37-.11.72-.03,1.16-.2.7-1.15-.48-1-.66-2.13-.99-3.2-.98-3.17-1.54-6.46-2.76-9.56-.16-.41,0-.44.28-.61Zm-9.14-6.15c-.91-.09-2.08.13-2.66-.36-.68-.57.12-1.67.22-2.54.2-1.73.57-3.45.84-5.17.12-.78.45-1.14,1.3-1.14,1.97,0,3.9.08,5.75.89.79.34,1.13.84,1.23,1.69.52,4.41-1.86,6.78-6.67,6.64Z"/><path d="m190.51,19.46c-1.7-.02-3.41-.14-5.11-.07-4.86.18-9.64,1.3-14.53,1.17-.24,0-.5.02-.68.27.68.26,1.38.3,2.08.34,2.24.12,4.51.07,6.72.41,3.3.51,6.62.68,9.94.76.84.02,1.29.01,1.58-.15l.49-2.66c-.13-.04-.3-.06-.48-.06Z"/><path d="m189.59,25.21c-4.97.23-9.98.03-14.89,1.04-1.75.36-3.54.16-5.28.52,1.87.56,3.79.41,5.68.46,4.36.11,8.65,1.11,13.03,1.02.41,0,.86.09,1.26.07l.57-3.09c-.11-.02-.22-.03-.36-.02Z"/><path d="m188.35,30.98c-2.28.17-4.56.39-6.85.4-4.08.02-8.13.37-12.37,1.4,6.06.45,11.86.89,17.66,1.33.75.06,1.21.09,1.53.02l.58-3.15c-.15-.02-.34-.01-.55,0Z"/><path d="m187.37,36.75c-1.28.13-2.57.27-3.85.35-5.14.31-10.28.6-15.25.89.92.42,2.11.77,3.33.9,5.13.55,10.32.31,15.44,1.09.06,0,.13.02.2.03l.59-3.25c-.14-.03-.3-.03-.46,0Z"/><path d="m184.72,48.52c-5.11.19-10.17,1.19-15.32.87-1.38-.09-2.78.14-4.17.22,0,.08,0,.16,0,.23,2.22.28,4.44.55,6.65.83,4.1.52,8.23.46,12.34.73.34.02.64.05.91.04l.54-2.93c-.2-.03-.49-.02-.96,0Z"/><path d="m185.91,42.71c-5.1.47-10.2.85-15.33.86-1.19,0-2.4-.16-3.6.22,2.32.44,4.61,1.1,7,1.21,3.78.17,7.57.36,11.35.63.36.03.65.02.89-.02l.53-2.87c-.19-.06-.46-.06-.83-.02Z"/><path d="m171.56,28.53c-.04-.11-.07-.21-.12-.32-.11-.26-.15-.44-.13-.57-.51-1.62-1.21-2.94-2.01-4.01-1.14-1.47-2.59-2.65-4.4-3.48-1.25-.58-2.59-.96-3.97-1.18l-4.93-.11c-1.73.18-3.45.59-5.08,1.19-2.83,1.05-5.39,2.68-7.25,4.75-5.44,6.03-7.23,13.26-6.79,21.15.14,2.53.98,4.98,2.68,7.01,3.83,4.55,8.87,5.61,14.45,4.84,1.91-.26,3.69-.8,5.35-1.56.32-.15.63-.31.94-.48,5.9-3.23,8.91-9.12,10.31-12.9,0-.03,0-.05.01-.08.17-.68.44-1.33.67-1.99.22-.77.33-1.29.36-1.43,0-.01,0-.03,0-.04.75-4.53.59-8.05-.1-10.79Zm-8.91,5.49c-.11,4.65-.93,8.34-3.08,11.65-.6.93-1.33,1.68-2.13,2.3-1.8,1.38-4.02,1.95-6.31,1.52-2.34-.44-3.9-1.86-4.3-4.14-.9-5.09-.19-9.96,2.72-14.34.9-1.36,1.99-2.35,3.23-3.01,1.48-.77,3.18-1.06,5.12-.8,1.7.23,2.82,1.27,3.7,2.66.96,1.52,1.11,3.19,1.05,4.16Z"/></svg>